<?xml version="1.0" encoding="UTF-8"?>
<svg width="12px" height="12px" viewBox="0 0 12 12" version="1.1" xmlns="http://www.w3.org/2000/svg">
    <!-- Generator: Sketch 50.2 (55047) - http://www.bohemiancoding.com/sketch -->
    <title>Combined Shape</title>
    <desc>Created with Sketch.</desc>
    <defs></defs>
    <g id="Symbols" stroke="none" stroke-width="1" fill="none" fill-rule="evenodd">
        <g id="Top-of-table-Copy-2" transform="translate(-1018.000000, -3.000000)" fill="#A8A9B4">
            <path d="M1024,7.72533166 L1028.46134,3.26399246 C1028.81333,2.91200251 1029.38402,2.91200251 1029.73601,3.26399246 C1030.088,3.6159824 1030.088,4.18667086 1029.73601,4.5386608 L1025.27467,9 L1029.73601,13.4613392 C1030.088,13.8133291 1030.088,14.3840176 1029.73601,14.7360075 C1029.38402,15.0879975 1028.81333,15.0879975 1028.46134,14.7360075 L1024,10.2746683 L1019.53866,14.7360075 C1019.18667,15.0879975 1018.61598,15.0879975 1018.26399,14.7360075 C1017.912,14.3840176 1017.912,13.8133291 1018.26399,13.4613392 L1022.72533,9 L1018.26399,4.5386608 C1017.912,4.18667086 1017.912,3.6159824 1018.26399,3.26399246 C1018.61598,2.91200251 1019.18667,2.91200251 1019.53866,3.26399246 L1024,7.72533166 Z" id="Combined-Shape"></path>
        </g>
    </g>
</svg>
