<?xml version="1.0" encoding="UTF-8"?>
<svg width="14px" height="14px" viewBox="0 0 14 14" version="1.1" xmlns="http://www.w3.org/2000/svg">
    <!-- Generator: Sketch 50.2 (55047) - http://www.bohemiancoding.com/sketch -->
    <title>Combined Shape</title>
    <desc>Created with Sketch.</desc>
    <defs></defs>
    <g id="Topics" stroke="none" stroke-width="1" fill="none" fill-rule="evenodd">
        <g id="Topics_Consumer-Group(s)-Offsets/Expand" transform="translate(-208.000000, -135.000000)" fill="#A8A9B4" fill-rule="nonzero">
            <g id="Details" transform="translate(78.000000, 114.000000)">
                <g id="Expand" transform="translate(129.000000, 19.000000)">
                    <path d="M4.86538937,10.9082947 L1.84489441,10.9082947 C1.43068084,10.9082947 1.09489441,10.5725082 1.09489441,10.1582947 C1.09489441,9.74408112 1.43068084,9.40829468 1.84489441,9.40829468 L6.96899414,9.40829468 C7.3832077,9.40829468 7.71899414,9.74408112 7.71899414,10.1582947 L7.71899414,15.2227478 C7.71899414,15.6369614 7.3832077,15.9727478 6.96899414,15.9727478 C6.55478058,15.9727478 6.21899414,15.6369614 6.21899414,15.2227478 L6.21899414,11.8089885 L2.35537313,15.6658781 C2.04390287,15.9768057 1.53934972,15.9763657 1.22842212,15.6648955 C0.917494531,15.3534252 0.917934448,14.8488721 1.22940471,14.5379445 L4.86538937,10.9082947 Z M10.4934889,7.54385376 L13.7297668,7.54385376 C14.1439804,7.54385376 14.4797668,7.8796402 14.4797668,8.29385376 C14.4797668,8.70806732 14.1439804,9.04385376 13.7297668,9.04385376 L8.60566711,9.04385376 C8.19145355,9.04385376 7.85566711,8.70806732 7.85566711,8.29385376 L7.85566711,3.22940064 C7.85566711,2.81518707 8.19145355,2.47940064 8.60566711,2.47940064 C9.01988067,2.47940064 9.35566711,2.81518707 9.35566711,3.22940064 L9.35566711,6.42775291 L13.0859111,2.70400806 C13.3973813,2.39308047 13.9019345,2.39352039 14.2128621,2.70499064 C14.5237896,3.0164609 14.5233497,3.52101405 14.2118795,3.83194165 L10.4934889,7.54385376 Z" id="Combined-Shape" transform="translate(7.737640, 9.221924) scale(-1, -1) translate(-7.737640, -9.221924) "></path>
                </g>
            </g>
        </g>
    </g>
</svg>
