<?xml version="1.0" encoding="UTF-8"?>
<svg width="18px" height="16px" viewBox="0 0 18 16" version="1.1" xmlns="http://www.w3.org/2000/svg">
    <!-- Generator: Sketch 52.2 (67145) - http://www.bohemiancoding.com/sketch -->
    <title>Rectangle</title>
    <desc>Created with Sketch.</desc>
    <g id="Schema-Catalog" stroke="none" stroke-width="1" fill="none" fill-rule="evenodd">
        <g id="D-Hub_Main_results" transform="translate(-777.000000, -523.000000)" fill="#30B6DD" fill-rule="nonzero">
            <path d="M788.517564,530 C788.863374,529.402199 789.509718,529 790.25,529 C790.990282,529 791.636626,529.402199 791.982436,530 L794,530 C794.552285,530 795,530.447715 795,531 C795,531.552285 794.552285,532 794,532 L791.982436,532 C791.636626,532.597801 790.990282,533 790.25,533 C789.509718,533 788.863374,532.597801 788.517564,532 L778,532 C777.447715,532 777,531.552285 777,531 C777,530.447715 777.447715,530 778,530 L788.517564,530 Z M784.517564,536 C784.863374,535.402199 785.509718,535 786.25,535 C786.990282,535 787.636626,535.402199 787.982436,536 L794,536 C794.552285,536 795,536.447715 795,537 C795,537.552285 794.552285,538 794,538 L787.982436,538 C787.636626,538.597801 786.990282,539 786.25,539 C785.509718,539 784.863374,538.597801 784.517564,538 L778,538 C777.447715,538 777,537.552285 777,537 C777,536.447715 777.447715,536 778,536 L784.517564,536 Z M779.517564,524 C779.863374,523.402199 780.509718,523 781.25,523 C781.990282,523 782.636626,523.402199 782.982436,524 L794,524 C794.552285,524 795,524.447715 795,525 C795,525.552285 794.552285,526 794,526 L782.982436,526 C782.636626,526.597801 781.990282,527 781.25,527 C780.509718,527 779.863374,526.597801 779.517564,526 L778,526 C777.447715,526 777,525.552285 777,525 C777,524.447715 777.447715,524 778,524 L779.517564,524 Z" id="Rectangle"></path>
        </g>
    </g>
</svg>
