<?xml version="1.0" encoding="UTF-8"?>
<svg width="16px" height="16px" viewBox="0 0 16 16" version="1.1" xmlns="http://www.w3.org/2000/svg">
    <!-- Generator: Sketch 50.2 (55047) - http://www.bohemiancoding.com/sketch -->
    <title>Combined Shape</title>
    <desc>Created with Sketch.</desc>
    <defs></defs>
    <g id="Symbols" stroke="none" stroke-width="1" fill="none" fill-rule="evenodd">
        <g id="Search_Schemes" transform="translate(-1311.000000, -22.000000)" fill="#FFFFFF" fill-rule="nonzero">
            <g id="Group-7" transform="translate(1139.000000, 0.000000)">
                <g id="Group" transform="translate(148.000000, 0.000000)">
                    <path d="M35.1080617,31.9814914 C35.7508759,31.1031062 36.1019608,30.047044 36.1019608,28.9333333 C36.1019608,26.0787792 33.7878875,23.7647059 30.9333333,23.7647059 C28.0787792,23.7647059 25.7647059,26.0787792 25.7647059,28.9333333 C25.7647059,31.7878875 28.0787792,34.1019608 30.9333333,34.1019608 C32.047044,34.1019608 33.1031062,33.7508759 33.9814914,33.1080617 L34.6320062,32.6320062 L35.1080617,31.9814914 Z M37.828539,35.828539 C37.8616401,35.7775723 37.900539,35.7292734 37.9452357,35.6845767 L37.6845767,35.9452357 C37.7292734,35.900539 37.7775723,35.8616401 37.828539,35.828539 Z M36.5321608,33.0236663 L39.1930712,35.6845767 C39.5376514,36.029157 39.5376514,36.587832 39.1930712,36.9324122 L38.9324122,37.1930712 C38.587832,37.5376514 38.029157,37.5376514 37.6845767,37.1930712 L35.0236663,34.5321608 C33.8770491,35.3712708 32.4630442,35.8666667 30.9333333,35.8666667 C27.1041591,35.8666667 24,32.7625076 24,28.9333333 C24,25.1041591 27.1041591,22 30.9333333,22 C34.7625076,22 37.8666667,25.1041591 37.8666667,28.9333333 C37.8666667,30.4630442 37.3712708,31.8770491 36.5321608,33.0236663 Z" id="Combined-Shape"></path>
                </g>
            </g>
        </g>
    </g>
</svg>
