<?xml version="1.0" encoding="UTF-8"?>
<svg width="26px" height="26px" viewBox="0 0 26 26" version="1.1" xmlns="http://www.w3.org/2000/svg" xmlns:xlink="http://www.w3.org/1999/xlink">
    <!-- Generator: Sketch 47.1 (45422) - http://www.bohemiancoding.com/sketch -->
    <title>logo Data Hub_blue</title>
    <desc>Created with Sketch.</desc>
    <defs>
        <polygon id="path-1" points="0 12.9999893 0 0 25.5702479 0 25.5702479 12.9999893 25.5702479 25.9999785 0 25.9999785"></polygon>
    </defs>
    <g id="Wireframes-and-Visual" stroke="none" stroke-width="1" fill="none" fill-rule="evenodd">
        <g id="Elements" transform="translate(-49.000000, -497.000000)">
            <g id="logo-Data-Hub_blue" transform="translate(49.000000, 497.000000)">
                <g id="Data_Hub_Logo">
                    <mask id="mask-2" fill="white">
                        <use xlink:href="#path-1"></use>
                    </mask>
                    <g id="Clip-2"></g>
                    <path d="M22.7768595,10.0991521 C21.6150248,10.0991521 20.6192893,10.8088876 20.1983471,11.8181603 L16.0028926,11.8181603 C15.764595,10.6945736 15.1603636,9.70657355 14.3206281,8.98394545 L15.8176694,6.6336314 C15.9145785,6.65060661 16.0138512,6.66113554 16.1157025,6.66113554 C17.0650248,6.66113554 17.8347107,5.89144959 17.8347107,4.94212727 C17.8347107,3.99280496 17.0650248,3.22311901 16.1157025,3.22311901 C15.1663802,3.22311901 14.3966942,3.99280496 14.3966942,4.94212727 C14.3966942,5.31880496 14.5191736,5.6662595 14.7248099,5.94946612 L13.2462479,8.2707719 C12.5567107,7.92868926 11.7803636,7.7355157 10.9586777,7.7355157 C10.5893058,7.7355157 10.2291736,7.77526777 9.88171901,7.84897025 L7.98844628,4.52849091 C8.36705785,4.05168099 8.59504132,3.44959835 8.59504132,2.79336694 C8.59504132,1.25055702 7.34446281,-2.14876033e-05 5.80165289,-2.14876033e-05 C4.25884298,-2.14876033e-05 3.00826446,1.25055702 3.00826446,2.79336694 C3.00826446,4.33617686 4.25884298,5.58675537 5.80165289,5.58675537 C5.90522314,5.58675537 6.00750413,5.58009421 6.10828099,5.56913554 L7.91195041,8.7325405 C6.79631405,9.55100331 6.02297521,10.8069537 5.84312397,12.2479124 L3.3118843,12.2479124 C3.05682645,11.6181107 2.44013223,11.1735322 1.71900826,11.1735322 C0.76968595,11.1735322 0,11.9432182 0,12.8925405 C0,13.8418628 0.76968595,14.6115488 1.71900826,14.6115488 C2.44013223,14.6115488 3.05682645,14.1669702 3.3118843,13.5371686 L5.84312397,13.5371686 C6.00127273,14.8042926 6.61818182,15.928524 7.52366942,16.737962 L5.31710744,20.4411355 C5.19419835,20.424805 5.06957025,20.4132017 4.94214876,20.4132017 C3.39933884,20.4132017 2.14876033,21.663995 2.14876033,23.2065901 C2.14876033,24.7494 3.39933884,25.9999785 4.94214876,25.9999785 C6.48495868,25.9999785 7.73553719,24.7494 7.73553719,23.2065901 C7.73553719,22.575714 7.5238843,21.9955488 7.17105785,21.5279785 L9.38900826,17.8054661 C9.88408264,17.9636149 10.4111736,18.0495653 10.9586777,18.0495653 C11.7578017,18.0495653 12.5143802,17.8677802 13.1897355,17.5433174 L14.9203471,20.2915818 C14.7260992,20.5698463 14.6115702,20.9076314 14.6115702,21.2727058 C14.6115702,22.2220281 15.3812562,22.991714 16.3305785,22.991714 C17.2799008,22.991714 18.0495868,22.2220281 18.0495868,21.2727058 C18.0495868,20.3233835 17.2799008,19.5536975 16.3305785,19.5536975 C16.2173388,19.5536975 16.1068926,19.5653008 15.9998843,19.5863587 L14.2724959,16.8430364 C15.137157,16.1167554 15.7600826,15.1124248 16.0028926,13.9669207 L20.1983471,13.9669207 C20.6192893,14.9764083 21.6150248,15.6859289 22.7768595,15.6859289 C24.3196694,15.6859289 25.5702479,14.4353504 25.5702479,12.8925405 C25.5702479,11.3497306 24.3196694,10.0991521 22.7768595,10.0991521" id="Fill-1" fill="#ffffff" mask="url(#mask-2)"></path>
                </g>
            </g>
        </g>
    </g>
</svg>
