<?xml version="1.0" encoding="UTF-8"?>
<svg width="15px" height="18px" viewBox="0 0 15 18" version="1.1" xmlns="http://www.w3.org/2000/svg">
    <!-- Generator: Sketch 50.2 (55047) - http://www.bohemiancoding.com/sketch -->
    <title>Combined Shape</title>
    <desc>Created with Sketch.</desc>
    <defs></defs>
    <g id="Symbols" stroke="none" stroke-width="1" fill="none" fill-rule="evenodd">
        <g id="Buttons1" transform="translate(-18.000000, -11.000000)" fill="#868996">
            <g id="Group-36">
                <g id="Group">
                    <g id="Group-28">
                        <path d="M18.0062879,17.557421 C18.0019755,17.5146065 17.9998152,17.4716025 17.9998152,17.4285714 C17.9998152,16.718491 18.5754491,16.1428571 19.2855295,16.1428571 L31.714365,16.1428571 C31.7560281,16.1428571 31.7976666,16.1448823 31.8391331,16.1489253 C32.5458621,16.2178328 33.0629186,16.8466104 32.9940111,17.5533395 L31.9911335,27.8390538 C31.9269155,28.497686 31.3732429,29 30.7114874,29 L20.3215419,29 C19.6613568,29 19.1084616,28.4999968 19.0423003,27.8431353 L18.0062879,17.557421 Z M22.9530508,18.6845603 C22.250373,18.6845603 21.6807401,19.2541932 21.6807401,19.956871 L21.6807401,25.1479291 C21.6807401,25.8506069 22.250373,26.4202398 22.9530508,26.4202398 C23.6557286,26.4202398 24.2253614,25.8506069 24.2253614,25.1479291 L24.2253614,19.956871 C24.2253614,19.2541932 23.6557286,18.6845603 22.9530508,18.6845603 Z M28.0422934,18.6845603 C27.3396156,18.6845603 26.7699827,19.2541932 26.7699827,19.956871 L26.7699827,25.1479291 C26.7699827,25.8506069 27.3396156,26.4202398 28.0422934,26.4202398 C28.7449712,26.4202398 29.314604,25.8506069 29.314604,25.1479291 L29.314604,19.956871 C29.314604,19.2541932 28.7449712,18.6845603 28.0422934,18.6845603 Z M18.8616379,14.8571429 C18.7235439,14.8571429 18.587479,14.8239007 18.4649416,14.7602255 C18.043323,14.5411363 17.8791405,14.0217399 18.0982298,13.6001212 C18.5003215,12.82633 19.2959702,12.3369578 20.1679415,12.3271232 L24.2550467,12.281026 C24.2550467,11.5735349 24.8285815,11 25.5360727,11 L25.5520591,11 C26.2683793,11 26.8490715,11.5806922 26.8490715,12.2970124 L26.8490715,12.3430996 L30.7153205,12.3430996 C31.612137,12.3430996 32.4405335,12.8225242 32.8873249,13.6001212 C32.9604042,13.7273085 32.9988615,13.8714327 32.9988615,14.01812 C32.9988615,14.4814995 32.6232182,14.8571429 32.1598387,14.8571429 L18.8616379,14.8571429 Z" id="Combined-Shape"></path>
                    </g>
                </g>
            </g>
        </g>
    </g>
</svg>
