<?xml version="1.0" encoding="UTF-8"?>
<svg width="16px" height="14px" viewBox="0 0 16 14" version="1.1" xmlns="http://www.w3.org/2000/svg">
    <!-- Generator: Sketch 50.2 (55047) - http://www.bohemiancoding.com/sketch -->
    <title>Combined Shape</title>
    <desc>Created with Sketch.</desc>
    <defs></defs>
    <g id="Symbols" stroke="none" stroke-width="1" fill="none" fill-rule="evenodd">
        <g id="Top-of-table-Copy-2" transform="translate(1.000000, -2.000000)" fill="#A8A9B4" fill-rule="nonzero">
            <path d="M2.61821427,14.5 L5.85449219,14.5 C6.26870575,14.5 6.60449219,14.8357864 6.60449219,15.25 C6.60449219,15.6642136 6.26870575,16 5.85449219,16 L0.730392456,16 C0.316178894,16 -0.0196075439,15.6642136 -0.0196075439,15.25 L-0.0196075439,10.1855469 C-0.0196075439,9.77133331 0.316178894,9.43554688 0.730392456,9.43554688 C1.14460602,9.43554688 1.48039246,9.77133331 1.48039246,10.1855469 L1.48039246,13.3838992 L5.21063639,9.6601543 C5.52210665,9.34922671 6.0266598,9.34966662 6.3375874,9.66113688 C6.64851499,9.97260714 6.64807508,10.4771603 6.33660482,10.7880879 L2.61821427,14.5 Z M11.3817857,3.5 L8.14550781,3.5 C7.73129425,3.5 7.39550781,3.16421356 7.39550781,2.75 C7.39550781,2.33578644 7.73129425,2 8.14550781,2 L13.2696075,2 C13.6838211,2 14.0196075,2.33578644 14.0196075,2.75 L14.0196075,7.81445312 C14.0196075,8.22866669 13.6838211,8.56445312 13.2696075,8.56445312 C12.855394,8.56445312 12.5196075,8.22866669 12.5196075,7.81445312 L12.5196075,4.61610085 L8.78936361,8.3398457 C8.47789335,8.65077329 7.9733402,8.65033338 7.6624126,8.33886312 C7.35148501,8.02739286 7.35192492,7.52283971 7.66339518,7.21191211 L11.3817857,3.5 Z" id="Combined-Shape"></path>
        </g>
    </g>
</svg>
