<?xml version="1.0" encoding="UTF-8"?>
<svg width="14px" height="14px" viewBox="0 0 14 14" version="1.1" xmlns="http://www.w3.org/2000/svg">
    <!-- Generator: Sketch 50.2 (55047) - http://www.bohemiancoding.com/sketch -->
    <title>Combined Shape Copy 2</title>
    <desc>Created with Sketch.</desc>
    <defs></defs>
    <g id="Schema-Catalog" stroke="none" stroke-width="1" fill="none" fill-rule="evenodd">
        <g id="D-Hub_Main_Schema-view_Type" transform="translate(-1023.000000, -426.000000)" fill="#A8A9B4">
            <g id="Details" transform="translate(389.000000, 306.000000)">
                <g id="Text" transform="translate(37.000000, 61.000000)">
                    <path d="M606,61 C606,60.2636203 605.333333,59.930287 604,60 C602.666667,59.930287 602,60.2636203 602,61 L602,59 C602,57.8954305 602.895431,57 604,57 C605.104569,57 606,57.8954305 606,59 L606,61 Z M604,61 C605.104569,61 606,61.8954305 606,63 L606,70 C606,71.1045695 605.104569,72 604,72 C602.895431,72 602,71.1045695 602,70 L602,63 C602,61.8954305 602.895431,61 604,61 Z M602,72 C602.558359,72.3187107 603.25725,72.5081665 604.015676,72.5081665 C604.759973,72.5081665 605.446932,72.3257038 606,72.0176772 L603.991026,75 L602,72 Z" id="Combined-Shape-Copy-2" transform="translate(604.000000, 66.000000) rotate(-315.000000) translate(-604.000000, -66.000000) "></path>
                </g>
            </g>
        </g>
    </g>
</svg>
